<svg width="100" height="101" viewBox="0 0 100 101" fill="none" xmlns="http://www.w3.org/2000/svg">
<circle cx="50" cy="50.8983" r="50" fill="#3F7D58"/>
<g clip-path="url(#clip0_2319_665)">
<path d="M64.0202 40.3388L47.9038 36.8058C47.4753 36.7197 47.0302 36.8053 46.6643 37.0441C46.2983 37.283 46.0408 37.6561 45.9472 38.0829C45.8537 38.5098 45.9315 38.9564 46.164 39.3264C46.3964 39.6965 46.7649 39.9604 47.1901 40.0614L59.3765 42.7328L34.694 58.5395C34.3218 58.7779 34.0595 59.1544 33.9648 59.5861C33.8702 60.0179 33.9509 60.4696 34.1893 60.8418C34.4277 61.2141 34.8042 61.4764 35.236 61.571C35.6677 61.6657 36.1194 61.5849 36.4917 61.3465L61.1741 45.5398L58.5027 57.7262C58.4516 57.9415 58.4438 58.1649 58.4799 58.3832C58.516 58.6015 58.5953 58.8105 58.713 58.9979C58.8307 59.1853 58.9846 59.3474 59.1656 59.4747C59.3467 59.602 59.5512 59.6919 59.7674 59.7393C59.9836 59.7867 60.207 59.7906 60.4247 59.7507C60.6424 59.7108 60.8499 59.6279 61.0353 59.507C61.2206 59.386 61.38 59.2293 61.5041 59.0461C61.6282 58.8629 61.7146 58.6568 61.7582 58.4398L65.2912 42.3234C65.3857 41.8917 65.305 41.4401 65.0666 41.0679C64.8283 40.6957 64.4519 40.4335 64.0202 40.3388Z" fill="white"/>
</g>
<defs>
<clipPath id="clip0_2319_665">
<rect width="40" height="40" fill="white" transform="translate(22 44.8983) rotate(-32.6356)"/>
</clipPath>
</defs>
</svg>
