<svg width="50" height="51" viewBox="0 0 50 51" fill="none" xmlns="http://www.w3.org/2000/svg">
<circle cx="25" cy="25.4492" r="25" fill="#3F7D58"/>
<g clip-path="url(#clip0_2319_658)">
<path d="M35.5157 17.0295L23.4283 14.3798C23.107 14.3152 22.7731 14.3794 22.4987 14.5586C22.2242 14.7377 22.0311 15.0175 21.9609 15.3377C21.8907 15.6578 21.9491 15.9927 22.1235 16.2703C22.2978 16.5478 22.5742 16.7457 22.8931 16.8215L32.0328 18.825L13.521 30.6801C13.2418 30.8589 13.0451 31.1412 12.9741 31.4651C12.9031 31.7889 12.9637 32.1277 13.1425 32.4068C13.3213 32.686 13.6036 32.8827 13.9275 32.9537C14.2513 33.0247 14.5901 32.9642 14.8692 32.7854L33.3811 20.9303L31.3775 30.0701C31.3392 30.2316 31.3334 30.3991 31.3604 30.5628C31.3875 30.7266 31.4469 30.8833 31.5352 31.0239C31.6235 31.1644 31.7389 31.286 31.8747 31.3814C32.0105 31.4769 32.1639 31.5444 32.326 31.5799C32.4882 31.6155 32.6558 31.6184 32.819 31.5885C32.9823 31.5585 33.1379 31.4964 33.2769 31.4057C33.4159 31.315 33.5355 31.1975 33.6286 31.06C33.7217 30.9226 33.7865 30.7681 33.8192 30.6053L36.4689 18.518C36.5398 18.1942 36.4792 17.8555 36.3005 17.5764C36.1217 17.2973 35.8394 17.1006 35.5157 17.0295Z" fill="white"/>
</g>
<defs>
<clipPath id="clip0_2319_658">
<rect width="30" height="30" fill="white" transform="translate(4 20.4492) rotate(-32.6356)"/>
</clipPath>
</defs>
</svg>
