<svg width="20" height="20" viewBox="0 0 20 20" fill="none" xmlns="http://www.w3.org/2000/svg">
<path d="M18.9232 9.41089L13.0898 3.57755C12.9326 3.42576 12.7221 3.34176 12.5037 3.34366C12.2852 3.34556 12.0761 3.4332 11.9216 3.58771C11.7671 3.74221 11.6795 3.95122 11.6776 4.16972C11.6757 4.38822 11.7597 4.59872 11.9115 4.75589L16.3223 9.16672H1.66732C1.4463 9.16672 1.23434 9.25452 1.07806 9.4108C0.921782 9.56708 0.833984 9.77904 0.833984 10.0001C0.833984 10.2211 0.921782 10.433 1.07806 10.5893C1.23434 10.7456 1.4463 10.8334 1.66732 10.8334H16.3223L11.9115 15.2442C11.8319 15.3211 11.7684 15.413 11.7247 15.5147C11.6811 15.6164 11.6581 15.7257 11.6571 15.8364C11.6561 15.947 11.6772 16.0568 11.7191 16.1592C11.761 16.2616 11.8229 16.3546 11.9012 16.4329C11.9794 16.5111 12.0724 16.573 12.1749 16.6149C12.2773 16.6568 12.387 16.6779 12.4977 16.6769C12.6083 16.676 12.7177 16.653 12.8193 16.6093C12.921 16.5656 13.0129 16.5021 13.0898 16.4226L18.9232 10.5892C19.0794 10.4329 19.1671 10.221 19.1671 10.0001C19.1671 9.77908 19.0794 9.56716 18.9232 9.41089Z" fill="white"/>
</svg>
