<svg width="24" height="24" viewBox="0 0 24 24" fill="none" xmlns="http://www.w3.org/2000/svg">
<g clip-path="url(#clip0_2319_639)">
<path d="M13.62 23.9531H9.76908C9.12585 23.9531 8.60261 23.4309 8.60261 22.7889V14.12H6.35592C5.71269 14.12 5.18945 13.5976 5.18945 12.9558V9.24115C5.18945 8.59918 5.71269 8.07697 6.35592 8.07697H8.60261V6.2168C8.60261 4.37238 9.18291 2.80316 10.2806 1.67908C11.3832 0.549866 12.9241 -0.046875 14.7367 -0.046875L17.6736 -0.0421143C18.3157 -0.0410156 18.8381 0.481201 18.8381 1.12207V4.57105C18.8381 5.21301 18.315 5.73523 17.672 5.73523L15.6946 5.73596C15.0915 5.73596 14.938 5.85663 14.9051 5.89362C14.851 5.95496 14.7866 6.12836 14.7866 6.60718V8.07678H17.5234C17.7294 8.07678 17.929 8.1275 18.1005 8.22308C18.4706 8.42944 18.7006 8.81964 18.7006 9.24133L18.6992 12.956C18.6992 13.5976 18.1759 14.1198 17.5327 14.1198H14.7866V22.7889C14.7866 23.4309 14.2632 23.9531 13.62 23.9531ZM10.0123 22.5461H13.3767V13.4901C13.3767 13.0615 13.7262 12.7128 14.1555 12.7128H17.2894L17.2907 9.48395H14.1553C13.726 9.48395 13.3767 9.13532 13.3767 8.70667V6.60718C13.3767 6.0575 13.4327 5.43237 13.8484 4.96252C14.3507 4.39453 15.1424 4.32898 15.6942 4.32898L17.4283 4.32825V1.3645L14.7356 1.36011C11.8226 1.36011 10.0123 3.22119 10.0123 6.2168V8.70667C10.0123 9.13513 9.66303 9.48395 9.23373 9.48395H6.59919V12.7128H9.23373C9.66303 12.7128 10.0123 13.0615 10.0123 13.4901V22.5461Z" fill="#A3A3A3"/>
</g>
<defs>
<clipPath id="clip0_2319_639">
<rect width="24" height="24" fill="white"/>
</clipPath>
</defs>
</svg>
