<svg width="22" height="22" viewBox="0 0 22 22" fill="none" xmlns="http://www.w3.org/2000/svg">
<g clip-path="url(#clip0_2319_625)">
<path d="M15.9286 0H6.07104C2.72347 0 0 2.7236 0 6.07117V15.9287C0 19.2764 2.72347 21.9999 6.07104 21.9999H15.9286C19.2764 21.9999 21.9999 19.2763 21.9999 15.9287V6.07117C22 2.7236 19.2764 0 15.9286 0ZM20.0481 15.9287C20.0481 18.2001 18.2001 20.0479 15.9287 20.0479H6.07104C3.79977 20.0481 1.95193 18.2001 1.95193 15.9287V6.07117C1.95193 3.7999 3.79977 1.95193 6.07104 1.95193H15.9286C18.2 1.95193 20.0479 3.7999 20.0479 6.07117V15.9287H20.0481Z" fill="#A3A3A3"/>
<path d="M11.0008 5.33105C7.87501 5.33105 5.33203 7.87404 5.33203 10.9999C5.33203 14.1256 7.87501 16.6684 11.0008 16.6684C14.1267 16.6684 16.6696 14.1256 16.6696 10.9999C16.6696 7.87404 14.1267 5.33105 11.0008 5.33105ZM11.0008 14.7163C8.95144 14.7163 7.28397 13.0491 7.28397 10.9997C7.28397 8.9502 8.95131 7.28286 11.0008 7.28286C13.0504 7.28286 14.7177 8.9502 14.7177 10.9997C14.7177 13.0491 13.0502 14.7163 11.0008 14.7163Z" fill="#A3A3A3"/>
<path d="M16.906 3.67627C16.53 3.67627 16.1605 3.82852 15.8949 4.09529C15.628 4.36075 15.4746 4.73031 15.4746 5.10769C15.4746 5.48389 15.6282 5.85333 15.8949 6.12009C16.1604 6.38556 16.53 6.53911 16.906 6.53911C17.2834 6.53911 17.6517 6.38556 17.9184 6.12009C18.1852 5.85333 18.3374 5.48376 18.3374 5.10769C18.3374 4.73031 18.1852 4.36075 17.9184 4.09529C17.653 3.82852 17.2834 3.67627 16.906 3.67627Z" fill="#A3A3A3"/>
</g>
<defs>
<clipPath id="clip0_2319_625">
<rect width="22" height="22" fill="white"/>
</clipPath>
</defs>
</svg>
