<svg width="24" height="24" viewBox="0 0 24 24" fill="none" xmlns="http://www.w3.org/2000/svg">
<g clip-path="url(#clip0_2319_632)">
<path d="M3.24 0.200073C2.36002 0.200073 1.56 0.520089 0.96 1.12009C0.320016 1.76007 0 2.56004 0 3.40004C0 4.28003 0.36 5.08004 0.96 5.68004C1.56 6.28004 2.4 6.64004 3.20002 6.60006C3.20002 6.60006 3.24 6.60006 3.28003 6.60006C4.08005 6.60006 4.84003 6.28004 5.44003 5.68004C6.04003 5.08004 6.40003 4.28003 6.40003 3.40004C6.44002 2.56004 6.08002 1.76003 5.48002 1.16003C4.88002 0.520042 4.08 0.200073 3.24 0.200073ZM4.88002 5.12007C4.44 5.56009 3.84 5.84007 3.20002 5.80009C2.60002 5.80009 1.96003 5.56009 1.52002 5.12007C1.04002 4.68006 0.800016 4.04007 0.800016 3.40009C0.800016 2.7601 1.04002 2.1601 1.52002 1.6801C1.96003 1.24009 2.56003 1.00009 3.24 1.00009C3.84 1.00009 4.44 1.24009 4.88002 1.6801C5.36002 2.1601 5.60002 2.7601 5.60002 3.40009C5.60002 4.04007 5.36002 4.68006 4.88002 5.12007Z" fill="#A3A3A3"/>
<path d="M4.80041 7.40027H1.56041C0.920422 7.40027 0.400391 7.92025 0.400391 8.60027V22.6003C0.400391 23.2403 0.960406 23.8003 1.60039 23.8003H4.80041C5.44039 23.8003 6.00041 23.2403 6.00041 22.6403V8.60027C6.00041 7.96024 5.44039 7.40027 4.80041 7.40027ZM5.20039 22.6403C5.20039 22.8403 5.00038 23.0003 4.80041 23.0003H1.60039C1.40037 23.0003 1.20041 22.8003 1.20041 22.6003V8.60027C1.20041 8.40025 1.36039 8.20028 1.56041 8.20028H4.80041C5.00042 8.20028 5.20039 8.4003 5.20039 8.60027V22.6403Z" fill="#A3A3A3"/>
<path d="M18.4009 6.99988H17.5609C16.0009 6.99988 14.521 7.67989 13.561 8.75989V8.19988C13.561 7.79989 13.161 7.39986 12.7609 7.39986H8.76095C8.40095 7.39986 7.96094 7.71988 7.96094 8.15985V23.0798C7.96094 23.5198 8.40095 23.7998 8.76095 23.7998H13.161C13.521 23.7998 13.961 23.5198 13.961 23.0798V14.4398C13.961 13.1198 14.921 12.0798 16.161 12.0798C16.801 12.0798 17.401 12.3198 17.841 12.7598C18.241 13.1198 18.401 13.6798 18.401 14.3998V22.9999C18.401 23.3998 18.801 23.7999 19.201 23.7999H23.201C23.601 23.7999 24.001 23.3999 24.001 22.9999V12.6799C24.001 9.47989 21.561 6.99988 18.4009 6.99988ZM23.2009 22.9599L23.161 22.9999H19.2409L19.201 14.3999C19.201 13.4399 18.961 12.7199 18.441 12.1999C17.841 11.5999 17.041 11.2799 16.201 11.2799C14.521 11.3199 13.201 12.6799 13.201 14.4399V22.9999H8.80094V8.19988H12.7609L12.8009 8.23986V10.7599L13.8809 9.67986L13.9209 9.63988C14.7209 8.51989 16.1209 7.79989 17.6009 7.79989H18.4409C21.1209 7.79989 23.2009 9.95989 23.2009 12.6799V22.9599Z" fill="#A3A3A3"/>
</g>
<defs>
<clipPath id="clip0_2319_632">
<rect width="24" height="24" fill="white"/>
</clipPath>
</defs>
</svg>
