<svg width="213" height="48" viewBox="0 0 213 48" fill="none" xmlns="http://www.w3.org/2000/svg">
<path fill-rule="evenodd" clip-rule="evenodd" d="M4.29111 28.6023C5.19823 29.5042 5.19821 30.9664 4.29108 31.8683L4.24462 31.9145C3.33749 32.8164 1.86674 32.8163 0.959626 31.9144C0.0525084 31.0125 0.0525223 29.5503 0.959657 28.6484L1.00611 28.6022C1.91325 27.7003 3.38399 27.7004 4.29111 28.6023Z" fill="#3F7D53"/>
<path fill-rule="evenodd" clip-rule="evenodd" d="M15.2112 29.298C16.1167 30.2015 16.114 31.6638 15.2052 32.564L8.77096 38.9381C7.8622 39.8383 6.39146 39.8357 5.48597 38.9322C4.58049 38.0287 4.58315 36.5664 5.49191 35.6662L11.9262 29.2921C12.835 28.3919 14.3057 28.3945 15.2112 29.298Z" fill="#6DD493"/>
<path fill-rule="evenodd" clip-rule="evenodd" d="M23.9431 40.2706C24.6547 39.2093 26.0969 38.9226 27.1643 39.6301L27.3037 39.7224C28.3711 40.4299 28.6595 41.8638 27.9479 42.925C27.2363 43.9863 25.7941 44.2731 24.7267 43.5656L24.5873 43.4732C23.5199 42.7657 23.2315 41.3318 23.9431 40.2706Z" fill="#3F7D53"/>
<path fill-rule="evenodd" clip-rule="evenodd" d="M39.2728 28.4638C40.18 29.3657 40.18 30.8279 39.2728 31.7298L36.1138 34.8706C35.2066 35.7725 33.7359 35.7725 32.8288 34.8706C31.9217 33.9687 31.9217 32.5065 32.8288 31.6046L35.9879 28.4638C36.895 27.5619 38.3657 27.5619 39.2728 28.4638Z" fill="#6DD493"/>
<path fill-rule="evenodd" clip-rule="evenodd" d="M39.3197 16.8473C40.2268 17.7492 40.2268 19.2115 39.3197 20.1133L15.9751 43.3231C15.068 44.225 13.5972 44.225 12.6901 43.3231C11.783 42.4212 11.783 40.959 12.6901 40.0571L36.0347 16.8473C36.9418 15.9454 38.4125 15.9454 39.3197 16.8473Z" fill="#3F7D58"/>
<path fill-rule="evenodd" clip-rule="evenodd" d="M34.905 9.71133C35.8122 10.6132 35.8122 12.0755 34.905 12.9774L21.479 26.3259C20.5719 27.2278 19.1011 27.2278 18.194 26.3259C17.2869 25.424 17.2869 23.9617 18.194 23.0598L31.6201 9.71133C32.5272 8.80944 33.9979 8.80944 34.905 9.71133Z" fill="#3F7D58"/>
<path fill-rule="evenodd" clip-rule="evenodd" d="M27.8187 5.18362C28.7264 6.0849 28.7274 7.54715 27.8209 8.44965L10.5621 25.6318C9.65563 26.5343 8.18489 26.5353 7.27715 25.634C6.36942 24.7327 6.36843 23.2705 7.27494 22.368L24.5337 5.18582C25.4402 4.28332 26.9109 4.28234 27.8187 5.18362Z" fill="#3F7D58"/>
<path fill-rule="evenodd" clip-rule="evenodd" d="M10.7276 10.6841C11.6332 11.5876 11.6307 13.0498 10.722 13.9501L3.96251 20.6475C3.05382 21.5478 1.58308 21.5453 0.67752 20.6419C-0.228043 19.7384 -0.225512 18.2762 0.683174 17.3758L7.44265 10.6785C8.35133 9.77816 9.82207 9.78067 10.7276 10.6841Z" fill="#6DD493"/>
<path fill-rule="evenodd" clip-rule="evenodd" d="M14.8678 4.00024C16.1506 4.00024 17.1906 5.03421 17.1906 6.30968V6.54062C17.1906 7.81608 16.1506 8.85005 14.8678 8.85005C13.5849 8.85005 12.5449 7.81608 12.5449 6.54062V6.30968C12.5449 5.03421 13.5849 4.00024 14.8678 4.00024Z" fill="#3F7D53"/>
<path d="M66.254 23.7659C66.929 24.6839 67.28 25.8179 67.28 27.1139C67.28 28.2479 66.983 29.2469 66.416 30.1379C65.822 31.0559 65.039 31.7579 64.013 32.2439C62.987 32.7569 61.826 32.9999 60.53 32.9999H50V11.6699H59.828C61.853 11.6699 63.446 12.1829 64.634 13.2089C65.795 14.2349 66.389 15.5849 66.389 17.2859C66.389 18.4199 66.119 19.4189 65.579 20.2289C65.039 21.0389 64.283 21.6329 63.338 21.9569C64.58 22.2269 65.552 22.8479 66.254 23.7659ZM54.212 20.4449H58.451C59.693 20.4449 60.611 20.2829 61.205 19.9049C61.799 19.5269 62.096 18.9599 62.096 18.1769C62.096 17.3669 61.772 16.7459 61.151 16.3409C60.53 15.9629 59.585 15.7469 58.316 15.7469H54.212V20.4449ZM61.988 28.3019C62.609 27.8969 62.933 27.2759 62.933 26.4119C62.933 25.6289 62.609 25.0349 62.015 24.6569C61.421 24.2789 60.476 24.0899 59.207 24.0899H54.212V28.9229H59.099C60.395 28.9229 61.34 28.7339 61.988 28.3019Z" fill="white"/>
<path d="M69.5024 16.5299C69.0164 16.0439 68.7734 15.4499 68.7734 14.6939C68.7734 13.9919 69.0164 13.3979 69.5024 12.9119C69.9884 12.4529 70.5824 12.2099 71.3384 12.2099C72.0674 12.2099 72.6614 12.4529 73.1474 12.9119C73.6334 13.3979 73.8764 13.9919 73.8764 14.6939C73.8764 15.4229 73.6334 16.0169 73.1474 16.5029C72.6614 16.9889 72.0674 17.2319 71.3384 17.2319C70.5824 17.2319 69.9884 17.0159 69.5024 16.5299ZM69.3134 18.9599H73.3364V32.9999H69.3134V18.9599Z" fill="white"/>
<path d="M78.5832 32.4869C77.4492 31.8389 76.5582 30.9479 75.9372 29.8139C75.2892 28.6799 74.9922 27.4109 74.9922 25.9529C74.9922 24.5219 75.2892 23.2529 75.9372 22.1189C76.5582 20.9849 77.4492 20.1209 78.5832 19.4729C79.7172 18.8519 81.0132 18.5279 82.4712 18.5279C83.9292 18.5279 85.2252 18.8519 86.3592 19.4729C87.4932 20.1209 88.3572 20.9849 89.0052 22.1189C89.6532 23.2529 89.9772 24.5219 89.9772 25.9529C89.9772 27.4109 89.6532 28.6799 89.0052 29.8139C88.3572 30.9479 87.4662 31.8389 86.3322 32.4869C85.1982 33.1349 83.9022 33.4319 82.4712 33.4319C81.0132 33.4319 79.7172 33.1349 78.5832 32.4869ZM84.9822 28.8419C85.6302 28.0859 85.9542 27.1409 85.9542 25.9529C85.9542 24.7919 85.6302 23.8469 84.9822 23.0909C84.3342 22.3619 83.4972 21.9839 82.4712 21.9839C81.4452 21.9839 80.6352 22.3619 79.9872 23.0909C79.3392 23.8469 79.0152 24.7919 79.0152 25.9529C79.0152 27.1409 79.3392 28.0859 79.9872 28.8419C80.6352 29.5979 81.4452 29.9759 82.4712 29.9759C83.4972 29.9759 84.3342 29.5979 84.9822 28.8419Z" fill="white"/>
<path d="M92.986 32.1358C91.771 31.2718 91.15 30.0568 91.123 28.5178H95.092C95.092 29.1928 95.389 29.7058 95.929 30.0838C96.469 30.4618 97.171 30.6508 98.035 30.6508C98.764 30.6508 99.358 30.5158 99.79 30.1918C100.222 29.8678 100.465 29.4898 100.465 29.0578C100.465 28.5448 100.195 28.1938 99.655 27.9778C99.115 27.7888 98.305 27.5998 97.171 27.4378C95.983 27.2758 95.011 27.0868 94.255 26.8708C93.499 26.6548 92.824 26.2498 92.284 25.6558C91.744 25.0618 91.474 24.2248 91.474 23.1448C91.474 21.7408 92.041 20.6068 93.229 19.7698C94.417 18.9598 96.037 18.5278 98.089 18.5278C99.952 18.5278 101.437 18.9868 102.571 19.8778C103.705 20.7688 104.326 21.9838 104.461 23.5228H100.519C100.465 22.8478 100.222 22.3078 99.763 21.9028C99.277 21.5248 98.656 21.3088 97.846 21.3088C97.09 21.3088 96.523 21.4708 96.118 21.7678C95.686 22.0918 95.497 22.4968 95.497 22.9828C95.497 23.4688 95.74 23.8198 96.253 24.0088C96.766 24.2248 97.576 24.3868 98.656 24.4948C99.844 24.6568 100.843 24.8728 101.626 25.0888C102.382 25.3048 103.057 25.7368 103.624 26.3308C104.164 26.9248 104.461 27.7888 104.461 28.9228C104.461 30.3268 103.867 31.4068 102.706 32.2168C101.545 33.0268 99.952 33.4318 97.927 33.4318C95.821 33.4318 94.174 32.9998 92.986 32.1358Z" fill="white"/>
<path d="M105.535 34.8629H106.912C107.776 34.8899 108.478 34.7819 109.018 34.5389C109.531 34.2959 110.017 33.8639 110.476 33.2159L104.131 18.9599H108.343L112.555 28.3289L116.065 18.9599H120.25L114.526 34.0259C113.824 35.6729 112.906 36.8069 111.745 37.4549C110.584 38.1029 109.099 38.3999 107.263 38.3999H105.535V34.8629Z" fill="white"/>
<path d="M120.922 18.9598H124.918V20.9848C125.404 20.2288 126.025 19.6078 126.835 19.1758C127.645 18.7438 128.59 18.5278 129.67 18.5278C133.126 18.5278 134.881 20.7148 134.881 25.0618V32.9998H130.831V25.2778C130.831 24.2518 130.588 23.4688 130.102 22.8748C129.616 22.2808 128.941 21.9838 128.077 21.9838C127.105 21.9838 126.322 22.3348 125.755 23.0368C125.188 23.7388 124.918 24.6568 124.918 25.8178V32.9998H120.922V18.9598Z" fill="white"/>
<path d="M142.839 33.1077C141.759 33.1077 140.922 32.9997 140.328 32.7837C139.707 32.5677 139.248 32.1897 138.978 31.6227C138.681 31.0557 138.546 30.2457 138.573 29.2197V22.6047H135.576L135.829 18.9597H138.573V15.1797H142.569V18.9597H146.241L145.989 22.6047H142.569V27.1677C142.569 27.8697 142.596 28.3557 142.65 28.6527C142.704 28.9767 142.866 29.1927 143.082 29.3277C143.298 29.4627 143.649 29.5167 144.162 29.5167C144.54 29.5167 145.618 29.4897 146.239 29.4357L145.989 32.9727C144.774 33.0807 143.514 33.1077 142.839 33.1077Z" fill="white"/>
<path d="M147.752 11.6699H151.748V20.9579C152.234 20.2019 152.855 19.6079 153.665 19.1759C154.475 18.7439 155.42 18.5279 156.5 18.5279C159.956 18.5279 161.711 20.7149 161.711 25.0349V32.9999H157.661V25.2239C157.661 24.1979 157.418 23.4149 156.932 22.8479C156.446 22.2809 155.771 21.9839 154.907 21.9839C153.935 21.9839 153.152 22.3349 152.585 23.0099C152.018 23.7119 151.748 24.6299 151.748 25.7639V32.9999H147.752V11.6699Z" fill="white"/>
<path d="M166.75 32.4868C165.616 31.8388 164.752 30.9478 164.131 29.8138C163.51 28.6798 163.213 27.4108 163.213 25.9528C163.213 24.5218 163.51 23.2528 164.131 22.1188C164.752 20.9848 165.616 20.1208 166.75 19.4728C167.857 18.8518 169.126 18.5278 170.557 18.5278C171.799 18.5278 172.906 18.8518 173.905 19.4458C174.904 20.0398 175.687 20.9038 176.281 22.0108C176.848 23.1448 177.145 24.4138 177.145 25.8718V27.1678H167.29C167.371 28.1128 167.695 28.8418 168.235 29.3818C168.775 29.9218 169.558 30.1648 170.584 30.1648C171.259 30.1648 171.826 30.0028 172.258 29.6788C172.69 29.3548 172.96 28.9498 173.068 28.4368H177.064C176.848 29.9488 176.119 31.1638 174.931 32.0818C173.743 32.9998 172.285 33.4318 170.557 33.4318C169.126 33.4318 167.857 33.1348 166.75 32.4868ZM173.122 24.7108C173.068 23.9008 172.825 23.2528 172.339 22.7398C171.853 22.2538 171.205 21.9838 170.395 21.9838C169.477 21.9838 168.775 22.2268 168.262 22.7128C167.749 23.1988 167.425 23.8738 167.317 24.7108H173.122Z" fill="white"/>
<path d="M180.15 32.1358C178.935 31.2718 178.314 30.0568 178.287 28.5178H182.256C182.256 29.1928 182.553 29.7058 183.093 30.0838C183.633 30.4618 184.335 30.6508 185.199 30.6508C185.928 30.6508 186.522 30.5158 186.954 30.1918C187.386 29.8678 187.629 29.4898 187.629 29.0578C187.629 28.5448 187.359 28.1938 186.819 27.9778C186.279 27.7888 185.469 27.5998 184.335 27.4378C183.147 27.2758 182.175 27.0868 181.419 26.8708C180.663 26.6548 179.988 26.2498 179.448 25.6558C178.908 25.0618 178.638 24.2248 178.638 23.1448C178.638 21.7408 179.205 20.6068 180.393 19.7698C181.581 18.9598 183.201 18.5278 185.253 18.5278C187.116 18.5278 188.601 18.9868 189.735 19.8778C190.869 20.7688 191.49 21.9838 191.625 23.5228H187.683C187.629 22.8478 187.386 22.3078 186.927 21.9028C186.441 21.5248 185.82 21.3088 185.01 21.3088C184.254 21.3088 183.687 21.4708 183.282 21.7678C182.85 22.0918 182.661 22.4968 182.661 22.9828C182.661 23.4688 182.904 23.8198 183.417 24.0088C183.93 24.2248 184.74 24.3868 185.82 24.4948C187.008 24.6568 188.007 24.8728 188.79 25.0888C189.546 25.3048 190.221 25.7368 190.788 26.3308C191.328 26.9248 191.625 27.7888 191.625 28.9228C191.625 30.3268 191.031 31.4068 189.87 32.2168C188.709 33.0268 187.116 33.4318 185.091 33.4318C182.985 33.4318 181.338 32.9998 180.15 32.1358Z" fill="white"/>
<path d="M193.461 16.5299C192.975 16.0439 192.732 15.4499 192.732 14.6939C192.732 13.9919 192.975 13.3979 193.461 12.9119C193.947 12.4529 194.541 12.2099 195.297 12.2099C196.026 12.2099 196.62 12.4529 197.106 12.9119C197.592 13.3979 197.835 13.9919 197.835 14.6939C197.835 15.4229 197.592 16.0169 197.106 16.5029C196.62 16.9889 196.026 17.2319 195.297 17.2319C194.541 17.2319 193.947 17.0159 193.461 16.5299ZM193.272 18.9599H197.295V32.9999H193.272V18.9599Z" fill="white"/>
<path d="M210.424 32.1358C211.639 31.2718 212.26 30.0568 212.287 28.5178H208.318C208.318 29.1928 208.021 29.7058 207.481 30.0838C206.941 30.4618 206.239 30.6508 205.375 30.6508C204.646 30.6508 204.052 30.5158 203.62 30.1918C203.188 29.8678 202.945 29.4898 202.945 29.0578C202.945 28.5448 203.215 28.1938 203.755 27.9778C204.295 27.7888 205.105 27.5998 206.239 27.4378C207.427 27.2758 208.399 27.0868 209.155 26.8708C209.911 26.6548 210.586 26.2498 211.126 25.6558C211.666 25.0618 211.936 24.2248 211.936 23.1448C211.936 21.7408 211.369 20.6068 210.181 19.7698C208.993 18.9598 207.373 18.5278 205.321 18.5278C203.458 18.5278 201.973 18.9868 200.839 19.8778C199.705 20.7688 199.084 21.9838 198.949 23.5228H202.891C202.945 22.8478 203.188 22.3078 203.647 21.9028C204.133 21.5248 204.754 21.3088 205.564 21.3088C206.32 21.3088 206.887 21.4708 207.292 21.7678C207.724 22.0918 207.913 22.4968 207.913 22.9828C207.913 23.4688 207.67 23.8198 207.157 24.0088C206.644 24.2248 205.834 24.3868 204.754 24.4948C203.566 24.6568 202.567 24.8728 201.784 25.0888C201.028 25.3048 200.353 25.7368 199.786 26.3308C199.246 26.9248 198.949 27.7888 198.949 28.9228C198.949 30.3268 199.543 31.4068 200.704 32.2168C201.865 33.0268 203.458 33.4318 205.483 33.4318C207.589 33.4318 209.236 32.9998 210.424 32.1358Z" fill="white"/>
</svg>
