<svg width="136" height="23" viewBox="0 0 136 23" fill="none" xmlns="http://www.w3.org/2000/svg">
<path d="M13.545 10.08C14.1075 10.845 14.4 11.79 14.4 12.87C14.4 13.815 14.1525 14.6475 13.68 15.39C13.185 16.155 12.5325 16.74 11.6775 17.145C10.8225 17.5725 9.855 17.775 8.775 17.775H0V0H8.19C9.8775 0 11.205 0.4275 12.195 1.2825C13.1625 2.1375 13.6575 3.2625 13.6575 4.68C13.6575 5.625 13.4325 6.4575 12.9825 7.1325C12.5325 7.8075 11.9025 8.3025 11.115 8.5725C12.15 8.7975 12.96 9.315 13.545 10.08ZM3.51 7.3125H7.0425C8.0775 7.3125 8.8425 7.1775 9.3375 6.8625C9.8325 6.5475 10.08 6.075 10.08 5.4225C10.08 4.7475 9.81 4.23 9.2925 3.8925C8.775 3.5775 7.9875 3.3975 6.93 3.3975H3.51V7.3125ZM9.99 13.86C10.5075 13.5225 10.7775 13.005 10.7775 12.285C10.7775 11.6325 10.5075 11.1375 10.0125 10.8225C9.5175 10.5075 8.73 10.35 7.6725 10.35H3.51V14.3775H7.5825C8.6625 14.3775 9.45 14.22 9.99 13.86Z" fill="#0A0D12"/>
<path d="M16.252 4.04995C15.847 3.64495 15.6445 3.14995 15.6445 2.51995C15.6445 1.93495 15.847 1.43995 16.252 1.03495C16.657 0.652451 17.152 0.449951 17.782 0.449951C18.3895 0.449951 18.8845 0.652451 19.2895 1.03495C19.6945 1.43995 19.897 1.93495 19.897 2.51995C19.897 3.12745 19.6945 3.62245 19.2895 4.02745C18.8845 4.43245 18.3895 4.63495 17.782 4.63495C17.152 4.63495 16.657 4.45495 16.252 4.04995ZM16.0945 6.07495H19.447V17.775H16.0945V6.07495Z" fill="#0A0D12"/>
<path d="M23.8187 17.3475C22.8737 16.8075 22.1312 16.065 21.6137 15.12C21.0737 14.175 20.8262 13.1175 20.8262 11.9025C20.8262 10.71 21.0737 9.65247 21.6137 8.70747C22.1312 7.76247 22.8737 7.04247 23.8187 6.50247C24.7637 5.98497 25.8437 5.71497 27.0587 5.71497C28.2737 5.71497 29.3537 5.98497 30.2987 6.50247C31.2437 7.04247 31.9637 7.76247 32.5037 8.70747C33.0437 9.65247 33.3137 10.71 33.3137 11.9025C33.3137 13.1175 33.0437 14.175 32.5037 15.12C31.9637 16.065 31.2212 16.8075 30.2762 17.3475C29.3312 17.8875 28.2512 18.135 27.0587 18.135C25.8437 18.135 24.7637 17.8875 23.8187 17.3475ZM29.1512 14.31C29.6912 13.68 29.9612 12.8925 29.9612 11.9025C29.9612 10.935 29.6912 10.1475 29.1512 9.51747C28.6112 8.90997 27.9137 8.59497 27.0587 8.59497C26.2037 8.59497 25.5287 8.90997 24.9887 9.51747C24.4487 10.1475 24.1787 10.935 24.1787 11.9025C24.1787 12.8925 24.4487 13.68 24.9887 14.31C25.5287 14.94 26.2037 15.255 27.0587 15.255C27.9137 15.255 28.6112 14.94 29.1512 14.31Z" fill="#0A0D12"/>
<path d="M35.822 17.055C34.8095 16.335 34.292 15.3225 34.2695 14.04H37.577C37.577 14.6025 37.8245 15.03 38.2745 15.345C38.7245 15.66 39.3095 15.8175 40.0295 15.8175C40.637 15.8175 41.132 15.705 41.492 15.435C41.8523 15.165 42.0548 14.85 42.0548 14.49C42.0548 14.0625 41.8298 13.77 41.3795 13.59C40.9295 13.4325 40.2545 13.275 39.3095 13.14C38.3195 13.005 37.5095 12.8475 36.8795 12.6675C36.2495 12.4875 35.687 12.15 35.237 11.655C34.787 11.16 34.562 10.4625 34.562 9.5625C34.562 8.3925 35.0345 7.4475 36.0245 6.75C37.0145 6.075 38.3645 5.715 40.0745 5.715C41.627 5.715 42.8648 6.0975 43.8098 6.84C44.7548 7.5825 45.2723 8.595 45.3848 9.8775H42.0998C42.0548 9.315 41.8523 8.865 41.4695 8.5275C41.0645 8.2125 40.547 8.0325 39.872 8.0325C39.242 8.0325 38.7695 8.1675 38.432 8.415C38.072 8.685 37.9145 9.0225 37.9145 9.4275C37.9145 9.8325 38.117 10.125 38.5445 10.2825C38.972 10.4625 39.647 10.5975 40.547 10.6875C41.537 10.8225 42.3698 11.0025 43.0223 11.1825C43.6523 11.3625 44.2148 11.7225 44.6873 12.2175C45.1373 12.7125 45.3848 13.4325 45.3848 14.3775C45.3848 15.5475 44.8898 16.4475 43.9223 17.1225C42.9548 17.7975 41.627 18.135 39.9395 18.135C38.1845 18.135 36.812 17.775 35.822 17.055Z" fill="#0A0D12"/>
<path d="M46.2794 19.3275H47.4269C48.1469 19.35 48.7319 19.26 49.1819 19.0575C49.6094 18.855 50.0144 18.495 50.3969 17.955L45.1094 6.07501H48.6194L52.1294 13.8825L55.0544 6.07501H58.5419L53.7719 18.63C53.1869 20.0025 52.4219 20.9475 51.4544 21.4875C50.4869 22.0275 49.2494 22.275 47.7194 22.275H46.2794V19.3275Z" fill="#0A0D12"/>
<path d="M59.1016 6.07497H62.4316V7.76246C62.8366 7.13246 63.3541 6.61496 64.0291 6.25496C64.7041 5.89496 65.4916 5.71497 66.3916 5.71497C69.2716 5.71497 70.7341 7.53746 70.7341 11.16V17.775H67.3591V11.34C67.3591 10.485 67.1566 9.83247 66.7516 9.33747C66.3466 8.84247 65.7841 8.59497 65.0641 8.59497C64.2541 8.59497 63.6016 8.88746 63.1291 9.47246C62.6566 10.0575 62.4316 10.8225 62.4316 11.79V17.775H59.1016V6.07497Z" fill="#0A0D12"/>
<path d="M77.367 17.865C76.467 17.865 75.7695 17.775 75.2745 17.595C74.757 17.415 74.3745 17.1 74.1495 16.6276C73.902 16.1551 73.7895 15.48 73.812 14.625V9.11255H71.3145L71.5253 6.07505H73.812V2.92505H77.142V6.07505H80.202L79.992 9.11255H77.142V12.915C77.142 13.5 77.1645 13.905 77.2095 14.1525C77.2545 14.4226 77.3895 14.6025 77.5695 14.715C77.7495 14.8275 78.042 14.8725 78.4695 14.8725C78.7845 14.8725 79.6828 14.85 80.2003 14.805L79.992 17.7525C78.9795 17.8425 77.9295 17.865 77.367 17.865Z" fill="#0A0D12"/>
<path d="M81.4609 0H84.7909V7.74C85.1959 7.11 85.7134 6.615 86.3884 6.255C87.0634 5.895 87.8509 5.715 88.7509 5.715C91.6309 5.715 93.0934 7.5375 93.0934 11.1375V17.775H89.7184V11.295C89.7184 10.44 89.5159 9.7875 89.1109 9.315C88.7059 8.8425 88.1434 8.595 87.4234 8.595C86.6134 8.595 85.9609 8.8875 85.4884 9.45C85.0159 10.035 84.7909 10.8 84.7909 11.745V17.775H81.4609V0Z" fill="#0A0D12"/>
<path d="M97.2912 17.3475C96.3462 16.8075 95.6262 16.065 95.1087 15.12C94.5912 14.175 94.3438 13.1175 94.3438 11.9025C94.3438 10.71 94.5912 9.65247 95.1087 8.70747C95.6262 7.76247 96.3462 7.04247 97.2912 6.50247C98.2137 5.98497 99.2712 5.71497 100.464 5.71497C101.499 5.71497 102.421 5.98497 103.254 6.47997C104.086 6.97497 104.739 7.69497 105.234 8.61747C105.706 9.56247 105.954 10.62 105.954 11.835V12.915H97.7412C97.8087 13.7025 98.0787 14.31 98.5287 14.76C98.9787 15.21 99.6312 15.4125 100.486 15.4125C101.049 15.4125 101.521 15.2775 101.881 15.0075C102.241 14.7375 102.466 14.4 102.556 13.9725H105.886C105.706 15.2325 105.099 16.245 104.109 17.01C103.119 17.775 101.904 18.135 100.464 18.135C99.2712 18.135 98.2137 17.8875 97.2912 17.3475ZM102.601 10.8675C102.556 10.1925 102.354 9.65247 101.949 9.22497C101.544 8.81997 101.004 8.59497 100.329 8.59497C99.5637 8.59497 98.9787 8.79747 98.5512 9.20247C98.1237 9.60747 97.8537 10.17 97.7637 10.8675H102.601Z" fill="#0A0D12"/>
<path d="M108.459 17.055C107.446 16.335 106.929 15.3225 106.906 14.04H110.214C110.214 14.6025 110.461 15.03 110.911 15.345C111.361 15.66 111.946 15.8175 112.666 15.8175C113.274 15.8175 113.769 15.705 114.129 15.435C114.489 15.165 114.691 14.85 114.691 14.49C114.691 14.0625 114.466 13.77 114.016 13.59C113.566 13.4325 112.891 13.275 111.946 13.14C110.956 13.005 110.146 12.8475 109.516 12.6675C108.886 12.4875 108.324 12.15 107.874 11.655C107.424 11.16 107.199 10.4625 107.199 9.56246C107.199 8.39246 107.671 7.44746 108.661 6.74996C109.651 6.07496 111.001 5.71497 112.711 5.71497C114.264 5.71497 115.501 6.09746 116.446 6.83996C117.391 7.58246 117.909 8.59496 118.021 9.87747H114.736C114.691 9.31497 114.489 8.86497 114.106 8.52747C113.701 8.21247 113.184 8.03247 112.509 8.03247C111.879 8.03247 111.406 8.16747 111.069 8.41497C110.709 8.68497 110.551 9.02247 110.551 9.42747C110.551 9.83247 110.754 10.125 111.181 10.2825C111.609 10.4625 112.284 10.5975 113.184 10.6875C114.174 10.8225 115.006 11.0025 115.659 11.1825C116.289 11.3625 116.851 11.7225 117.324 12.2175C117.774 12.7125 118.021 13.4325 118.021 14.3775C118.021 15.5475 117.526 16.4475 116.559 17.1225C115.591 17.7975 114.264 18.135 112.576 18.135C110.821 18.135 109.449 17.775 108.459 17.055Z" fill="#0A0D12"/>
<path d="M119.551 4.05001C119.146 3.64501 118.943 3.15001 118.943 2.52001C118.943 1.93501 119.146 1.44001 119.551 1.03501C119.956 0.652512 120.451 0.450012 121.081 0.450012C121.688 0.450012 122.183 0.652512 122.588 1.03501C122.993 1.44001 123.196 1.93501 123.196 2.52001C123.196 3.12751 122.993 3.62251 122.588 4.02751C122.183 4.43251 121.688 4.63501 121.081 4.63501C120.451 4.63501 119.956 4.45501 119.551 4.05001ZM119.393 6.07501H122.746V17.775H119.393V6.07501Z" fill="#0A0D12"/>
<path d="M133.688 17.055C134.7 16.335 135.217 15.3225 135.24 14.04H131.933C131.933 14.6025 131.685 15.03 131.235 15.345C130.785 15.66 130.2 15.8175 129.48 15.8175C128.873 15.8175 128.378 15.705 128.018 15.435C127.658 15.165 127.455 14.85 127.455 14.49C127.455 14.0625 127.68 13.77 128.13 13.59C128.58 13.4325 129.255 13.275 130.2 13.14C131.19 13.005 132 12.8475 132.63 12.6675C133.26 12.4875 133.823 12.15 134.273 11.655C134.723 11.16 134.948 10.4625 134.948 9.5625C134.948 8.3925 134.475 7.4475 133.485 6.75C132.495 6.075 131.145 5.715 129.435 5.715C127.883 5.715 126.645 6.0975 125.7 6.84C124.755 7.5825 124.238 8.595 124.125 9.8775H127.41C127.455 9.315 127.657 8.865 128.04 8.5275C128.445 8.2125 128.963 8.0325 129.638 8.0325C130.268 8.0325 130.74 8.1675 131.078 8.415C131.438 8.685 131.595 9.0225 131.595 9.4275C131.595 9.8325 131.393 10.125 130.965 10.2825C130.538 10.4625 129.863 10.5975 128.963 10.6875C127.973 10.8225 127.14 11.0025 126.488 11.1825C125.858 11.3625 125.295 11.7225 124.823 12.2175C124.373 12.7125 124.125 13.4325 124.125 14.3775C124.125 15.5475 124.62 16.4475 125.588 17.1225C126.555 17.7975 127.882 18.135 129.57 18.135C131.325 18.135 132.698 17.775 133.688 17.055Z" fill="#0A0D12"/>
</svg>
